HIERARCHY
ROOT hip
{
  OFFSET 0 0 0
  CHANNELS 6 Xposition Yposition Zposition Zrotation Yrotation Xrotation
  JOINT abdomen
  {
    OFFSET 0 20.6881 -0.73152
    CHANNELS 3 Zrotation Xrotation Yrotation
    JOINT chest
    {
      OFFSET 0 11.7043 -0.48768
      CHANNELS 3 Zrotation Xrotation Yrotation
      JOINT neck
      {
        OFFSET 0 22.1894 -2.19456
        CHANNELS 3 Zrotation Xrotation Yrotation
        JOINT head
        {
          OFFSET -0.24384 7.07133 1.2192
          CHANNELS 3 Zrotation Xrotation Yrotation
          JOINT leftEye
          {
            OFFSET 4.14528 8.04674 8.04672
            CHANNELS 3 Zrotation Xrotation Yrotation
            End Site
            {
              OFFSET 1 0 0
            }
          }
          JOINT rightEye
          {
            OFFSET -3.6576 8.04674 8.04672
            CHANNELS 3 Zrotation Xrotation Yrotation
            End Site
            {
              OFFSET 1 0 0
            }
          }
        }
      }
      JOINT rCollar
      {
        OFFSET -2.68224 19.2634 -4.8768
        CHANNELS 3 Zrotation Xrotation Yrotation
        JOINT rShldr
        {
          OFFSET -8.77824 -1.95073 1.46304
          CHANNELS 3 Zrotation Xrotation Yrotation
          JOINT rForeArm
          {
            OFFSET -28.1742 -1.7115 0.48768
            CHANNELS 3 Zrotation Xrotation Yrotation
            JOINT rHand
            {
              OFFSET -22.5879 0.773209 7.07136
              CHANNELS 3 Zrotation Xrotation Yrotation
              JOINT rThumb1
              {
                OFFSET -1.2192 -0.487915 3.41376
                CHANNELS 3 Zrotation Xrotation Yrotation
                JOINT rThumb2
                {
                  OFFSET -3.37035 -0.52449 3.41376
                  CHANNELS 3 Zrotation Xrotation Yrotation
                  End Site
                  {
                    OFFSET -1.78271 -1.18214 1.43049
                  }
                }
              }
              JOINT rIndex1
              {
                OFFSET -7.75947 0.938293 5.60832
                CHANNELS 3 Zrotation Xrotation Yrotation
                JOINT rIndex2
                {
                  OFFSET -2.54057 -0.884171 1.56538
                  CHANNELS 3 Zrotation Xrotation Yrotation
                  End Site
                  {
                    OFFSET -1.62519 -0.234802 1.16502
                  }
                }
              }
              JOINT rMid1
              {
                OFFSET -8.24714 1.18213 3.41376
                CHANNELS 3 Zrotation Xrotation Yrotation
                JOINT rMid2
                {
                  OFFSET -3.10165 -0.590103 1.0647
                  CHANNELS 3 Zrotation Xrotation Yrotation
                  End Site
                  {
                    OFFSET -2.48547 -0.328903 0.83742
                  }
                }
              }
              JOINT rRing1
              {
                OFFSET -8.82822 0.546677 1.51678
                CHANNELS 3 Zrotation Xrotation Yrotation
                JOINT rRing2
                {
                  OFFSET -2.60934 -0.819778 -0.0198488
                  CHANNELS 3 Zrotation Xrotation Yrotation
                  End Site
                  {
                    OFFSET -2.33842 -0.294052 0.168128
                  }
                }
              }
              JOINT rPinky1
              {
                OFFSET -8.27202 -0.0477905 -0.4584
                CHANNELS 3 Zrotation Xrotation Yrotation
                JOINT rPinky2
                {
                  OFFSET -1.82734 -0.647385 -0.700984
                  CHANNELS 3 Zrotation Xrotation Yrotation
                  End Site
                  {
                    OFFSET -1.69225 -0.51767 -0.607171
                  }
                }
              }
            }
          }
        }
      }
      JOINT lCollar
      {
        OFFSET 2.68224 19.2634 -4.8768
        CHANNELS 3 Zrotation Xrotation Yrotation
        JOINT lShldr
        {
          OFFSET 8.77824 -1.95073 1.46304
          CHANNELS 3 Zrotation Xrotation Yrotation
          JOINT lForeArm
          {
            OFFSET 28.1742 -1.7115 0.48768
            CHANNELS 3 Zrotation Xrotation Yrotation
            JOINT lHand
            {
              OFFSET 22.5879 0.773209 7.07136
              CHANNELS 3 Zrotation Xrotation Yrotation
              JOINT lThumb1
              {
                OFFSET 1.2192 -0.487915 3.41376
                CHANNELS 3 Zrotation Xrotation Yrotation
                JOINT lThumb2
                {
                  OFFSET 3.37035 -0.52449 3.41376
                  CHANNELS 3 Zrotation Xrotation Yrotation
                  End Site
                  {
                    OFFSET 1.78271 -1.18214 1.43049
                  }
                }
              }
              JOINT lIndex1
              {
                OFFSET 7.75947 0.938293 5.60832
                CHANNELS 3 Zrotation Xrotation Yrotation
                JOINT lIndex2
                {
                  OFFSET 2.54057 -0.884171 1.56538
                  CHANNELS 3 Zrotation Xrotation Yrotation
                  End Site
                  {
                    OFFSET 1.62519 -0.234802 1.16502
                  }
                }
              }
              JOINT lMid1
              {
                OFFSET 8.24714 1.18213 3.41376
                CHANNELS 3 Zrotation Xrotation Yrotation
                JOINT lMid2
                {
                  OFFSET 3.10165 -0.590103 1.0647
                  CHANNELS 3 Zrotation Xrotation Yrotation
                  End Site
                  {
                    OFFSET 2.48547 -0.328903 0.83742
                  }
                }
              }
              JOINT lRing1
              {
                OFFSET 8.82822 0.546677 1.51678
                CHANNELS 3 Zrotation Xrotation Yrotation
                JOINT lRing2
                {
                  OFFSET 2.60934 -0.819778 -0.0198488
                  CHANNELS 3 Zrotation Xrotation Yrotation
                  End Site
                  {
                    OFFSET 2.33842 -0.294052 0.168128
                  }
                }
              }
              JOINT lPinky1
              {
                OFFSET 8.27202 -0.0477905 -0.4584
                CHANNELS 3 Zrotation Xrotation Yrotation
                JOINT lPinky2
                {
                  OFFSET 1.82734 -0.647385 -0.700984
                  CHANNELS 3 Zrotation Xrotation Yrotation
                  End Site
                  {
                    OFFSET 1.69225 -0.51767 -0.607171
                  }
                }
              }
            }
          }
        }
      }
    }
  }
  JOINT rButtock
  {
    OFFSET -8.77824 4.35084 1.2192
    CHANNELS 3 Zrotation Xrotation Yrotation
    JOINT rThigh
    {
      OFFSET 0 -1.70687 -2.19456
      CHANNELS 3 Zrotation Xrotation Yrotation
      JOINT rShin
      {
        OFFSET 0 -36.8199 0.73152
        CHANNELS 3 Zrotation Xrotation Yrotation
        JOINT rFoot
        {
          OFFSET 0.73152 -45.1104 -5.12064
          CHANNELS 3 Zrotation Xrotation Yrotation
          End Site
          {
            OFFSET -1.1221 -3.69964 12.103
          }
        }
      }
    }
  }
  JOINT lButtock
  {
    OFFSET 8.77824 4.35084 1.2192
    CHANNELS 3 Zrotation Xrotation Yrotation
    JOINT lThigh
    {
      OFFSET 0 -1.70687 -2.19456
      CHANNELS 3 Zrotation Xrotation Yrotation
      JOINT lShin
      {
        OFFSET 0 -36.8199 0.73152
        CHANNELS 3 Zrotation Xrotation Yrotation
        JOINT lFoot
        {
          OFFSET -0.73152 -45.1104 -5.12064
          CHANNELS 3 Zrotation Xrotation Yrotation
          End Site
          {
            OFFSET 1.1221 -3.69964 12.103
          }
        }
      }
    }
  }
}
MOTION
Frames:	9
Frame Time:	0.00833333
5.05764 82.9504 45.4025 -8.2402 25.1503 9.6269 -3.60928 -4.0367 19.9425 -6.51989 -14.6254 4.97794 -5.79092 1.43112 -10.7772 19.9149 -15.8043 -17.3103 -0.0 0.0 0.0 -0.0 0.0 0.0 3.43482e-13 -1.27858e-12 -5.97895e-13 55.2863 3.91479 71.8982 -19.4422 -12.326 37.3424 -7.11459 57.7414 12.8659 -3.1745e-09 5.41534e-10 7.20184e-09 -5.11109e-09 1.18657e-09 1.25245e-08 -3.1745e-09 5.41532e-10 7.20183e-09 7.73091 5.47488 0.417314 -3.1745e-09 5.41529e-10 7.20184e-09 2.90554 0.965183 0.102902 -3.17449e-09 5.41528e-10 7.20184e-09 10.2786 0.731801 0.0259123 -3.17451e-09 5.4153e-10 7.20185e-09 2.22167 -0.733487 -0.20892 3.4349e-13 -1.27858e-12 -5.98093e-13 -69.9108 52.4033 -1.75185 26.626 -25.1606 -59.5397 0.229352 -13.5137 1.93562 -1.40403e-09 -1.28602e-08 6.46595e-09 -2.48894e-09 -2.22935e-08 1.11621e-08 -1.40404e-09 -1.28602e-08 6.46597e-09 -7.73091 5.47488 -0.417314 -1.40403e-09 -1.28602e-08 6.46595e-09 -2.90554 0.965183 -0.102902 -1.40404e-09 -1.28602e-08 6.46595e-09 -10.2786 0.731801 -0.0259123 -1.40403e-09 -1.28602e-08 6.46594e-09 -2.22167 -0.733487 0.20892 -2.03217e-16 0.0 -3.88251e-19 -0.387712 -1.89823 27.1197 0.0783565 -3.01861 0.665373 -29.6187 -21.2578 -52.1838 2.03217e-16 0.0 3.88251e-19 -2.86223 -13.7816 -42.4417 -0.00661052 7.47035 -0.0464941 0.303522 -1.87019 28.0255
5.04021 82.9657 45.4054 -8.0892 24.6413 9.7336 -3.60834 -3.93666 20.107 -6.49954 -14.6985 5.02366 -5.76958 1.48153 -10.7649 19.8932 -15.8374 -17.2931 -0.0 0.0 0.0 -0.0 0.0 0.0 2.97281e-13 -1.14813e-12 -2.87945e-13 56.545 4.3745 71.675 -19.6154 -12.5393 37.7425 -6.65015 56.6586 12.3196 -2.21786e-09 5.19579e-10 4.27828e-09 -3.58929e-09 1.052e-09 7.45152e-09 -2.21786e-09 5.19576e-10 4.27827e-09 7.73091 5.47488 0.417314 -2.21786e-09 5.19573e-10 4.27828e-09 2.90554 0.965183 0.102902 -2.21785e-09 5.19573e-10 4.27828e-09 10.2786 0.731801 0.0259123 -2.21787e-09 5.19576e-10 4.27829e-09 2.22167 -0.733487 -0.20892 2.97271e-13 -1.14812e-12 -2.88154e-13 -69.8969 52.3746 -1.76363 26.6215 -25.147 -59.5178 0.228272 -13.4827 1.931 -1.47085e-09 -1.25225e-08 6.21671e-09 -2.60491e-09 -2.17053e-08 1.07279e-08 -1.47085e-09 -1.25225e-08 6.21673e-09 -7.73091 5.47488 -0.417314 -1.47084e-09 -1.25225e-08 6.21671e-09 -2.90554 0.965183 -0.102902 -1.47085e-09 -1.25225e-08 6.21671e-09 -10.2786 0.731801 -0.0259123 -1.47085e-09 -1.25225e-08 6.21671e-09 -2.22167 -0.733487 0.20892 -2.03217e-16 0.0 -3.88251e-19 -0.320806 -1.85208 27.8744 0.0805611 -3.10843 0.672525 -30.0868 -21.417 -52.5745 2.03217e-16 0.0 3.88251e-19 -2.82436 -13.5906 -42.7352 -0.00670386 7.35344 -0.0483009 0.281964 -1.79331 28.7024
4.99119 82.9949 45.4454 -8.1162 24.3003 9.7061 -3.5924 -3.79251 20.2498 -6.4097 -14.7736 5.07134 -5.79579 1.5665 -10.7668 19.8991 -15.9632 -17.2772 -0.0 0.0 0.0 -0.0 0.0 0.0 1.6502e-13 -7.65378e-13 2.13392e-13 59.0042 4.77294 71.3236 -19.8591 -12.8411 38.3208 -5.82082 54.4559 11.3193 -6.28032e-10 3.12077e-10 -6.19391e-10 -1.06718e-09 5.24755e-10 -1.04614e-09 -6.2803e-10 3.12073e-10 -6.194e-10 7.73091 5.47488 0.417314 -6.28031e-10 3.12071e-10 -6.19387e-10 2.90554 0.965183 0.102902 -6.28022e-10 3.12071e-10 -6.19391e-10 10.2786 0.731801 0.0259123 -6.2804e-10 3.12073e-10 -6.1938e-10 2.22167 -0.733487 -0.20892 1.64974e-13 -7.65364e-13 2.13187e-13 -69.8732 52.3078 -1.87086 26.6135 -25.1234 -59.4801 0.226669 -13.4363 1.92411 -1.28115e-09 -1.0349e-08 5.10561e-09 -2.27079e-09 -1.79379e-08 8.80579e-09 -1.28116e-09 -1.0349e-08 5.10563e-09 -7.73091 5.47488 -0.417314 -1.28115e-09 -1.0349e-08 5.10562e-09 -2.90554 0.965183 -0.102902 -1.28116e-09 -1.0349e-08 5.10562e-09 -10.2786 0.731801 -0.0259123 -1.28115e-09 -1.0349e-08 5.10561e-09 -2.22167 -0.733487 0.20892 -2.03217e-16 0.0 -3.88251e-19 -0.1665 -1.70903 28.8075 0.0843022 -3.22811 0.687017 -30.9065 -21.7304 -53.1946 2.03217e-16 0.0 3.88251e-19 -2.70282 -13.3663 -42.9288 -0.00638171 7.18748 -0.0484814 0.281746 -1.71993 29.2261
4.93621 83.0283 45.4906 -8.2325 24.1351 9.6614 -3.56884 -3.65653 20.3375 -6.28125 -14.8314 5.10886 -5.83483 1.65634 -10.7657 19.9032 -16.1096 -17.2494 -0.0 0.0 0.0 -0.0 0.0 0.0 2.77873e-14 -3.35887e-13 7.20198e-13 61.6585 5.13475 70.8978 -20.09 -13.1288 38.8872 -5.08698 52.1375 10.3994 1.01737e-09 9.2628e-11 -5.58715e-09 1.54521e-09 -2.53259e-11 -9.66598e-09 1.01737e-09 9.26253e-11 -5.58716e-09 7.73091 5.47488 0.417314 1.01737e-09 9.26226e-11 -5.58715e-09 2.90554 0.965183 0.102902 1.01738e-09 9.26241e-11 -5.58715e-09 10.2786 0.731801 0.0259123 1.01736e-09 9.26254e-11 -5.58714e-09 2.22167 -0.733487 -0.20892 2.77072e-14 -3.35869e-13 7.19999e-13 -69.8912 52.2254 -1.97664 26.6054 -25.0993 -59.4415 0.225354 -13.3981 1.91843 -1.05358e-09 -7.45621e-09 3.59059e-09 -1.86668e-09 -1.29216e-08 6.18614e-09 -1.05359e-09 -7.45621e-09 3.5906e-09 -7.73091 5.47488 -0.417314 -1.05358e-09 -7.4562e-09 3.59059e-09 -2.90554 0.965183 -0.102902 -1.05359e-09 -7.4562e-09 3.59059e-09 -10.2786 0.731801 -0.0259123 -1.05358e-09 -7.4562e-09 3.59058e-09 -2.22167 -0.733487 0.20892 -2.03217e-16 0.0 -3.88251e-19 0.00780568 -1.55654 29.6763 0.0882192 -3.3469 0.702314 -31.7686 -22.0568 -53.8298 2.03217e-16 0.0 3.88251e-19 -2.55485 -13.1637 -43.0815 -0.00600992 7.01836 -0.0480409 0.285764 -1.65031 29.6336
4.90358 83.057 45.5208 -8.3087 24.1232 9.6738 -3.54436 -3.58072 20.3367 -6.14515 -14.8524 5.12403 -5.85211 1.7214 -10.7444 19.8759 -16.2045 -17.1966 -0.0 0.0 0.0 -0.0 0.0 0.0 -3.3325e-14 -6.52111e-14 1.04655e-12 63.5013 5.48339 70.4541 -20.233 -13.3075 39.2484 -4.70017 50.7253 9.8961 2.14072e-09 3.48366e-11 -8.72099e-09 3.33788e-09 -2.28402e-10 -1.51056e-08 2.14072e-09 3.48346e-11 -8.721e-09 7.73091 5.47488 0.417314 2.14072e-09 3.4832e-11 -8.72098e-09 2.90554 0.965183 0.102902 2.14073e-09 3.48339e-11 -8.72099e-09 10.2786 0.731801 0.0259123 2.14071e-09 3.4835e-11 -8.72098e-09 2.22167 -0.733487 -0.20892 -3.34193e-14 -6.51926e-14 1.04635e-12 -70.0012 52.1503 -1.98486 26.6002 -25.0839 -59.4171 0.225118 -13.3913 1.91742 -1.00676e-09 -4.96072e-09 2.12956e-09 -1.77266e-09 -8.58708e-09 3.65931e-09 -1.00677e-09 -4.96072e-09 2.12957e-09 -7.73091 5.47488 -0.417314 -1.00676e-09 -4.96071e-09 2.12957e-09 -2.90554 0.965183 -0.102902 -1.00676e-09 -4.96071e-09 2.12956e-09 -10.2786 0.731801 -0.0259123 -1.00676e-09 -4.96071e-09 2.12955e-09 -2.22167 -0.733487 0.20892 -2.03217e-16 0.0 -3.88251e-19 0.141719 -1.47876 30.2384 0.0908714 -3.43402 0.711871 -32.352 -22.2707 -54.2593 2.03217e-16 0.0 3.88251e-19 -2.43768 -13.0377 -43.2513 -0.00596479 6.89197 -0.0479829 0.276726 -1.58472 29.9621
4.88179 83.0713 45.543 -8.3823 24.2208 9.7026 -3.50829 -3.59787 20.1959 -5.97656 -14.8148 5.10643 -5.84175 1.74692 -10.688 19.7989 -16.2306 -17.0943 -0.0 0.0 0.0 -0.0 0.0 0.0 2.67053e-14 -2.41886e-14 1.12815e-12 64.2265 5.81359 69.9812 -20.2626 -13.3441 39.3263 -4.70511 50.7248 9.90012 2.55558e-09 2.56652e-10 -9.22001e-09 4.02369e-09 1.51555e-10 -1.59769e-08 2.55558e-09 2.56651e-10 -9.22002e-09 7.73091 5.47488 0.417314 2.55558e-09 2.56648e-10 -9.22001e-09 2.90554 0.965183 0.102902 2.55559e-09 2.56651e-10 -9.22001e-09 10.2786 0.731801 0.0259123 2.55558e-09 2.56652e-10 -9.22e-09 2.22167 -0.733487 -0.20892 2.66297e-14 -2.41788e-14 1.12794e-12 -70.2676 52.0608 -1.85107 26.5998 -25.0828 -59.4153 0.226557 -13.4334 1.92367 -1.27821e-09 -2.88854e-09 5.99263e-10 -2.22356e-09 -4.9734e-09 1.01148e-09 -1.27822e-09 -2.88854e-09 5.99272e-10 -7.73091 5.47488 -0.417314 -1.27821e-09 -2.88854e-09 5.99272e-10 -2.90554 0.965183 -0.102902 -1.27821e-09 -2.88854e-09 5.99267e-10 -10.2786 0.731801 -0.0259123 -1.27821e-09 -2.88854e-09 5.99258e-10 -2.22167 -0.733487 0.20892 -2.03217e-16 0.0 -3.88251e-19 0.234466 -1.50773 30.3672 0.0917266 -3.48017 0.713109 -32.5412 -22.3411 -54.4017 2.03217e-16 0.0 3.88251e-19 -2.35171 -13.027 -43.435 -0.00642036 6.82206 -0.0483467 0.251529 -1.52512 30.1659
4.85305 83.0737 45.5731 -8.4915 24.3506 9.7377 -3.4614 -3.67394 19.9471 -5.76997 -14.7346 5.06496 -5.82108 1.751 -10.6092 19.6914 -16.2255 -16.9565 -0.0 0.0 0.0 -0.0 0.0 0.0 1.5683e-13 -9.78493e-14 1.06905e-12 64.3831 6.11295 69.4545 -20.2243 -13.295 39.2316 -4.92611 51.5175 10.1852 2.58081e-09 6.416e-10 -8.19742e-09 4.1028e-09 8.71495e-10 -1.42105e-08 2.58082e-09 6.41601e-10 -8.19744e-09 7.73091 5.47488 0.417314 2.58081e-09 6.41598e-10 -8.19742e-09 2.90554 0.965183 0.102902 2.58082e-09 6.41601e-10 -8.19742e-09 10.2786 0.731801 0.0259123 2.58081e-09 6.41603e-10 -8.19741e-09 2.22167 -0.733487 -0.20892 1.56794e-13 -9.78543e-14 1.06882e-12 -70.6452 51.9536 -1.63375 26.6022 -25.0899 -59.4266 0.229139 -13.5082 1.93479 -1.72492e-09 -7.34768e-10 -1.16273e-09 -2.97218e-09 -1.20954e-09 -2.03735e-09 -1.72493e-09 -7.34758e-10 -1.16272e-09 -7.73091 5.47488 -0.417314 -1.72492e-09 -7.34763e-10 -1.16272e-09 -2.90554 0.965183 -0.102902 -1.72492e-09 -7.34766e-10 -1.16273e-09 -10.2786 0.731801 -0.0259123 -1.72492e-09 -7.34765e-10 -1.16273e-09 -2.22167 -0.733487 0.20892 -2.03217e-16 0.0 -3.88251e-19 0.314886 -1.5947 30.2127 0.0915678 -3.50214 0.709791 -32.5129 -22.3404 -54.3801 2.03217e-16 0.0 3.88251e-19 -2.27265 -13.0931 -43.6076 -0.00715021 6.78366 -0.0486731 0.219647 -1.47043 30.2437
4.83237 83.072 45.5959 -8.5133 24.4603 9.844 -3.42714 -3.76063 19.6819 -5.58539 -14.6487 5.0164 -5.79036 1.75326 -10.5318 19.5799 -16.1998 -16.8277 -0.0 0.0 0.0 -0.0 0.0 0.0 2.94035e-13 -2.13031e-13 9.35906e-13 64.2475 6.3955 68.9123 -20.1524 -13.204 39.053 -5.19963 52.4461 10.5333 2.39678e-09 1.01165e-09 -6.62031e-09 3.84614e-09 1.58264e-09 -1.14813e-08 2.39679e-09 1.01165e-09 -6.62032e-09 7.73091 5.47488 0.417314 2.39678e-09 1.01165e-09 -6.6203e-09 2.90554 0.965183 0.102902 2.39679e-09 1.01165e-09 -6.62031e-09 10.2786 0.731801 0.0259123 2.39678e-09 1.01165e-09 -6.62029e-09 2.22167 -0.733487 -0.20892 2.94039e-13 -2.13051e-13 9.3566e-13 -71.0213 51.8796 -1.39081 26.6049 -25.0978 -59.4392 0.231948 -13.5886 1.94675 -2.14473e-09 1.18052e-09 -2.75726e-09 -3.67556e-09 2.13936e-09 -4.79611e-09 -2.14473e-09 1.18054e-09 -2.75725e-09 -7.73091 5.47488 -0.417314 -2.14473e-09 1.18053e-09 -2.75725e-09 -2.90554 0.965183 -0.102902 -2.14473e-09 1.18052e-09 -2.75725e-09 -10.2786 0.731801 -0.0259123 -2.14473e-09 1.18052e-09 -2.75726e-09 -2.22167 -0.733487 0.20892 -2.03217e-16 0.0 -3.88251e-19 0.370245 -1.70093 29.947 0.0908911 -3.50825 0.704892 -32.3795 -22.3062 -54.2773 2.03217e-16 0.0 3.88251e-19 -2.22015 -13.1756 -43.795 -0.00793878 6.76454 -0.0492165 0.182168 -1.41653 30.2993
4.81081 83.0573 45.6111 -8.5102 24.5364 9.9423 -3.42778 -3.80929 19.4917 -5.48301 -14.5942 4.97747 -5.74993 1.77334 -10.48 19.4911 -16.1642 -16.7523 -0.0 0.0 0.0 -0.0 0.0 0.0 3.75305e-13 -2.96573e-13 7.95337e-13 64.0961 6.67705 68.3948 -20.0819 -13.1151 38.8792 -5.32598 52.8566 10.6924 2.18385e-09 1.18877e-09 -5.45575e-09 3.52463e-09 1.93622e-09 -9.46438e-09 2.18386e-09 1.18878e-09 -5.45576e-09 7.73091 5.47488 0.417314 2.18385e-09 1.18877e-09 -5.45575e-09 2.90554 0.965183 0.102902 2.18385e-09 1.18877e-09 -5.45575e-09 10.2786 0.731801 0.0259123 2.18385e-09 1.18878e-09 -5.45574e-09 2.22167 -0.733487 -0.20892 3.7533e-13 -2.966e-13 7.95089e-13 -71.2851 51.8899 -1.17866 26.6053 -25.0991 -59.4412 0.234028 -13.6475 1.95553 -2.33547e-09 2.53725e-09 -3.78516e-09 -3.99074e-09 4.50818e-09 -6.57372e-09 -2.33547e-09 2.53727e-09 -3.78514e-09 -7.73091 5.47488 -0.417314 -2.33547e-09 2.53725e-09 -3.78515e-09 -2.90554 0.965183 -0.102902 -2.33547e-09 2.53725e-09 -3.78515e-09 -10.2786 0.731801 -0.0259123 -2.33547e-09 2.53725e-09 -3.78516e-09 -2.22167 -0.733487 0.20892 -2.03217e-16 0.0 -3.88251e-19 0.389065 -1.78696 29.7423 0.0901966 -3.50681 0.701385 -32.2536 -22.2759 -54.1761 2.03217e-16 0.0 3.88251e-19 -2.21329 -13.2141 -44.0224 -0.00857105 6.75249 -0.0502312 0.139762 -1.35953 30.4363
